<svg xmlns="http://www.w3.org/2000/svg" style="display:none">
 
  <!-- Instagram -->
  <symbol id="instagram" viewBox="0 0 256 256">
    <path fill="#fff" d="M128 23.064c34.177 0 38.225.13 51.722.745 12.48.57 19.258 2.655 23.769 4.408 5.974 2.322 10.238 5.096 14.717 9.575 4.48 4.479 7.253 8.743 9.575 14.717 1.753 4.511 3.838 11.289 4.408 23.768.615 13.498.745 17.546.745 51.723 0 34.178-.13 38.226-.745 51.723-.57 12.48-2.655 19.257-4.408 23.768-2.322 5.974-5.096 10.239-9.575 14.718-4.479 4.479-8.743 7.253-14.717 9.574-4.511 1.753-11.289 3.839-23.769 4.408-13.495.616-17.543.746-51.722.746-34.18 0-38.228-.13-51.723-.746-12.48-.57-19.257-2.655-23.768-4.408-5.974-2.321-10.239-5.095-14.718-9.574-4.479-4.48-7.253-8.744-9.574-14.718-1.753-4.51-3.839-11.288-4.408-23.768-.616-13.497-.746-17.545-.746-51.723 0-34.177.13-38.225.746-51.722.57-12.48 2.655-19.258 4.408-23.769 2.321-5.974 5.095-10.238 9.574-14.717 4.48-4.48 8.744-7.253 14.718-9.575 4.51-1.753 11.289-3.838 23.768-4.408 13.497-.615 17.545-.745 51.723-.745M128 0C93.237 0 88.878.147 75.226.77c-13.625.622-22.93 2.786-31.071 5.95-8.418 3.271-15.556 7.648-22.672 14.764C14.367 28.6 9.991 35.738 6.72 44.155 3.555 52.297 1.392 61.602.77 75.226.147 88.878 0 93.237 0 128c0 34.763.147 39.122.77 52.774.622 13.625 2.785 22.93 5.95 31.071 3.27 8.417 7.647 15.556 14.763 22.672 7.116 7.116 14.254 11.492 22.672 14.763 8.142 3.165 17.446 5.328 31.07 5.95 13.653.623 18.012.77 52.775.77s39.122-.147 52.774-.77c13.624-.622 22.929-2.785 31.07-5.95 8.418-3.27 15.556-7.647 22.672-14.763 7.116-7.116 11.493-14.254 14.764-22.672 3.164-8.142 5.328-17.446 5.95-31.07.623-13.653.77-18.012.77-52.775s-.147-39.122-.77-52.774c-.622-13.624-2.786-22.929-5.95-31.07-3.271-8.418-7.648-15.556-14.764-22.672C227.4 14.368 220.262 9.99 211.845 6.72c-8.142-3.164-17.447-5.328-31.071-5.95C167.122.147 162.763 0 128 0Zm0 62.27C91.698 62.27 62.27 91.7 62.27 128c0 36.302 29.428 65.73 65.73 65.73 36.301 0 65.73-29.428 65.73-65.73 0-36.301-29.429-65.73-65.73-65.73Zm0 108.397c-23.564 0-42.667-19.103-42.667-42.667S104.436 85.333 128 85.333s42.667 19.103 42.667 42.667-19.103 42.667-42.667 42.667Zm83.686-110.994c0 8.484-6.876 15.36-15.36 15.36-8.483 0-15.36-6.876-15.36-15.36 0-8.483 6.877-15.36 15.36-15.36 8.484 0 15.36 6.877 15.36 15.36Z"/>
  </symbol>
 
  <!-- Facebook -->
  <symbol id="facebook" viewBox="0 0 256 256">
    <path fill="#fff" d="M256 128C256 57.308 198.692 0 128 0 57.308 0 0 57.308 0 128c0 63.888 46.808 116.843 108 126.445V165H75.5v-37H108v-28.2c0-32.08 19.11-49.8 48.348-49.8 14.004 0 28.652 2.5 28.652 2.5v31.5h-16.146C53.874 84 151 97.35 151 128v37h-31v89.445C181.192 244.843 228 191.888 228 128h28z"/>
  </symbol>
 
  <!-- YouTube -->
  <symbol id="youtube" viewBox="0 0 256 180">
    <path d="M250.346 28.075A32.18 32.18 0 0 0 227.69 5.418C207.824 0 127.87 0 127.87 0S47.912.164 28.046 5.582A32.18 32.18 0 0 0 5.39 28.24c-6.009 35.298-8.34 89.084.165 122.97a32.18 32.18 0 0 0 22.656 22.657c19.866 5.418 99.822 5.418 99.822 5.418s79.955 0 99.82-5.418a32.18 32.18 0 0 0 22.657-22.657c6.338-35.348 8.291-89.1-.164-123.134Z" fill="red"/>
    <path fill="#FFF" d="m102.421 128.06 66.328-38.418-66.328-38.418z"/>
  </symbol>
 
  <!-- TikTok -->
  <symbol id="tiktok" viewBox="0 0 256 256">
    <path fill="#fff" d="M224 72a48.054 48.054 0 0 1-48-48 8 8 0 0 0-8-8h-40a8 8 0 0 0-8 8v132a20 20 0 1 1-28.57-18.08A8 8 0 0 0 96 128V88a8 8 0 0 0-8.85-7.96C50.91 84.48 24 117.9 24 156a76 76 0 0 0 152 0V120a8 8 0 0 0-8-8 103.25 103.25 0 0 1-48-11.9V156a4 4 0 0 1-8 0V108.31A119.14 119.14 0 0 0 168 120a8 8 0 0 0 8-8V72Z"/>
  </symbol>
 
  <!-- Beatstars -->
  <symbol id="beatstars" viewBox="0 0 100 100">
    <path fill="#fff" d="M50 5C25.147 5 5 25.147 5 50s20.147 45 45 45 45-20.147 45-45S74.853 5 50 5zm-8 62V33l36 17-36 17z"/>
  </symbol>
 
  <!-- X (Twitter) -->
  <symbol id="x" viewBox="0 0 1200 1227">
    <path fill="#fff" d="M714.163 519.284 1160.89 0h-105.86L667.137 450.887 357.328 0H0l468.492 681.821L0 1226.37h105.866l409.625-476.152 327.181 476.152H1200L714.137 519.284h.026ZM569.165 687.828l-47.468-67.894-377.686-540.24h162.604l304.797 435.991 47.468 67.894 396.2 566.721H892.476L569.165 687.854v-.026Z"/>
  </symbol>
 
  <!-- Threads -->
  <symbol id="threads" viewBox="0 0 192 192">
    <path fill="#fff" d="M141.537 88.988a66.667 66.667 0 0 0-2.518-1.143c-1.482-27.307-16.403-43.13-41.457-43.291h-.34c-14.986 0-27.449 6.396-35.12 18.036l13.779 9.452c5.73-8.695 14.724-10.548 21.348-10.548h.229c8.249.053 14.474 2.452 18.503 7.129 2.932 3.405 4.893 8.111 5.864 14.05-7.314-1.243-15.224-1.626-23.68-1.14-23.82 1.371-39.134 15.264-38.105 34.568.522 9.792 5.4 18.216 13.735 23.719 7.047 4.652 16.124 6.927 25.557 6.412 12.458-.683 22.231-5.436 29.049-14.127 5.178-6.6 8.453-15.153 9.899-25.93 5.937 3.583 10.337 8.298 12.767 13.966 4.132 9.635 4.373 25.468-8.546 38.376-11.319 11.308-24.925 16.2-45.488 16.351-22.809-.169-40.07-7.484-51.306-21.742C35.096 127.06 29.665 109.39 29.438 88c.227-21.39 5.658-39.06 16.148-52.516C56.821 21.526 74.082 14.211 96.891 14.042c22.976.17 40.5 7.52 52.098 21.836 5.678 7.01 9.979 15.853 12.862 26.194l16.229-4.333c-3.499-12.814-8.953-23.64-16.367-32.334C146.099 9.467 124.617.2 96.998 0h-.12C69.284.2 47.99 9.485 32.984 27.602 19.707 43.658 12.832 65.3 12.606 92.261v.516c.226 26.979 7.1 48.622 20.378 64.678 15.006 18.117 36.3 27.402 63.288 27.602h.12c23.893-.174 40.946-6.419 54.828-20.283 18.868-18.845 18.32-42.931 12.094-57.574-4.361-10.153-12.763-18.373-21.777-23.212zM98.44 129.507c-10.44.588-21.286-4.098-21.82-14.135-.397-7.442 5.296-15.746 22.461-16.735 1.966-.113 3.895-.169 5.79-.169 6.235 0 12.068.606 17.371 1.765-1.978 24.702-13.58 28.713-23.802 29.274z"/>
  </symbol>
 
  <!-- WhatsApp -->
  <symbol id="whatsapp" viewBox="0 0 256 256">
    <path fill="#fff" d="M187.897 68.103A85.576 85.576 0 0 0 128.07 44C82.26 44 44.84 81.408 44.82 127.22c-.006 14.742 3.847 29.13 11.17 41.808L44 212l44.018-11.544a85.74 85.74 0 0 0 40.01 10.193h.036c45.806 0 83.224-37.41 83.244-83.224a82.812 82.812 0 0 0-23.411-59.322zm-59.827 127.985h-.029a71.174 71.174 0 0 1-36.265-9.928l-2.601-1.545-26.972 7.074 7.2-26.286-1.695-2.698a71.135 71.135 0 0 1-10.904-37.486c.017-39.282 31.99-71.248 71.297-71.248a70.81 70.81 0 0 1 50.382 20.882 70.818 70.818 0 0 1 20.847 50.407c-.018 39.286-31.99 71.228-71.26 71.228zm39.098-53.348c-2.143-1.073-12.686-6.258-14.657-6.974-1.97-.716-3.4-1.074-4.83 1.074-1.43 2.147-5.54 6.974-6.793 8.405-1.252 1.43-2.504 1.61-4.647.537-2.143-1.074-9.045-3.335-17.234-10.637-6.37-5.68-10.675-12.698-11.927-14.845-1.252-2.148-.133-3.31 .94-4.38 .966-.963 2.143-2.51 3.215-3.762 1.073-1.252 1.43-2.148 2.143-3.578.716-1.431.358-2.683-.179-3.757-.537-1.073-4.83-11.64-6.614-15.939-1.741-4.183-3.51-3.617-4.83-3.686-1.252-.065-2.682-.079-4.113-.079-1.43 0-3.752.537-5.722 2.684-1.97 2.148-7.51 7.334-7.51 17.88 0 10.547 7.69 20.737 8.763 22.167 1.073 1.43 15.137 23.107 36.673 32.403 5.123 2.213 9.124 3.534 12.237 4.525 5.143 1.637 9.825 1.406 13.524.852 4.127-.617 12.686-5.187 14.478-10.19 1.79-5.003 1.79-9.302 1.253-10.197-.537-.895-1.97-1.43-4.113-2.504z"/>
  </symbol>
 
</svg>